<!DOCTYPE svg PUBLIC "-//W3C//DTD SVG 1.1//EN" "http://www.w3.org/Graphics/SVG/1.1/DTD/svg11.dtd">
<!-- Uploaded to: SVG Repo, www.svgrepo.com, Transformed by: SVG Repo Mixer Tools -->
<svg fill="#000000" height="800px" width="800px" version="1.1" id="Layer_1" xmlns="http://www.w3.org/2000/svg" xmlns:xlink="http://www.w3.org/1999/xlink" viewBox="0 0 203.284 203.284" xml:space="preserve" stroke="#000000" stroke-width="2.236124">
<g id="SVGRepo_bgCarrier" stroke-width="0"/>
<g id="SVGRepo_tracerCarrier" stroke-linecap="round" stroke-linejoin="round"/>
<g id="SVGRepo_iconCarrier"> <g> <g> <g> <path d="M167.593,153.447c0,7.867,6.398,14.263,14.263,14.263s14.263-6.397,14.263-14.263c0-7.866-6.398-14.263-14.263-14.263 S167.593,145.58,167.593,153.447z M181.856,146.315c3.933,0,7.132,3.2,7.132,7.132s-3.199,7.132-7.132,7.132 s-7.132-3.2-7.132-7.132S177.923,146.315,181.856,146.315z"/> <path d="M165.81,107.091c6.881,0,12.48-5.599,12.48-12.48c0-6.881-5.599-12.48-12.48-12.48s-12.48,5.599-12.48,12.48 C153.33,101.492,158.929,107.091,165.81,107.091z M165.81,89.262c2.949,0,5.349,2.399,5.349,5.349 c0,2.949-2.399,5.349-5.349,5.349s-5.349-2.399-5.349-5.349C160.461,91.662,162.861,89.262,165.81,89.262z"/> <path d="M124.803,82.13c5.899,0,10.697-4.799,10.697-10.697c0-5.899-4.798-10.697-10.697-10.697 c-5.899,0-10.697,4.799-10.697,10.697C114.106,77.332,118.904,82.13,124.803,82.13z M124.803,67.867 c1.966,0,3.566,1.598,3.566,3.566s-1.6,3.566-3.566,3.566s-3.566-1.598-3.566-3.566S122.837,67.867,124.803,67.867z"/> <path d="M158.678,139.183c6.881,0,12.48-5.599,12.48-12.48c0-6.881-5.599-12.48-12.48-12.48c-6.881,0-12.48,5.599-12.48,12.48 C146.198,133.584,151.798,139.183,158.678,139.183z M158.678,121.354c2.949,0,5.349,2.399,5.349,5.349 c0,2.949-2.399,5.349-5.349,5.349c-2.949,0-5.349-2.399-5.349-5.349C153.33,123.754,155.729,121.354,158.678,121.354z"/> <path d="M143.908,171.276L97.153,53.301c-0.454-1.149-1.469-1.978-2.683-2.197c-1.217-0.216-2.457,0.209-3.282,1.125 l-7.849,8.713L62.785,26.606c-0.726-1.212-2.107-1.863-3.494-1.706c-1.4,0.171-2.568,1.152-2.977,2.504L12.676,171.276H0v7.132 h203.284v-7.132H143.908z M20.19,171.069L60.802,37.178l18.896,31.566c0.582,0.972,1.588,1.609,2.714,1.717 c1.107,0.094,2.236-0.32,2.995-1.163l7.233-8.027l43.516,109.798H20.19z"/> </g> </g> </g> </g>
</svg>