<!DOCTYPE svg PUBLIC "-//W3C//DTD SVG 1.1//EN" "http://www.w3.org/Graphics/SVG/1.1/DTD/svg11.dtd">
<!-- Uploaded to: SVG Repo, www.svgrepo.com, Transformed by: SVG Repo Mixer Tools -->
<svg width="800px" height="800px" viewBox="-0.5 0 25 25" fill="none" xmlns="http://www.w3.org/2000/svg">
<g id="SVGRepo_bgCarrier" stroke-width="0"/>
<g id="SVGRepo_tracerCarrier" stroke-linecap="round" stroke-linejoin="round"/>
<g id="SVGRepo_iconCarrier"> <path d="M7.245 17.005V6.00499" stroke="#0F0F0F" stroke-miterlimit="10" stroke-linecap="round" stroke-linejoin="round"/> <path d="M11.995 8.00499V19.005" stroke="#0F0F0F" stroke-miterlimit="10" stroke-linecap="round" stroke-linejoin="round"/> <path d="M21.495 6.33499V20.245C21.495 20.605 21.135 20.845 20.805 20.705L16.945 19.075C16.825 19.025 16.685 19.025 16.555 19.075L12.195 20.915C12.075 20.965 11.935 20.965 11.805 20.915L7.44501 19.075C7.32501 19.025 7.18499 19.025 7.05499 19.075L3.19501 20.705C2.86501 20.845 2.505 20.605 2.505 20.245V6.33499C2.505 6.13499 2.625 5.95499 2.815 5.87499L7.065 4.08499C7.185 4.03499 7.32499 4.03499 7.45499 4.08499L11.815 5.92499C11.935 5.97499 12.075 5.97499 12.205 5.92499L16.565 4.08499C16.685 4.03499 16.825 4.03499 16.955 4.08499L21.205 5.87499C21.375 5.95499 21.495 6.13499 21.495 6.33499Z" stroke="#0F0F0F" stroke-miterlimit="10" stroke-linecap="round" stroke-linejoin="round"/> <path d="M16.745 17.005V6.00499" stroke="#0F0F0F" stroke-miterlimit="10" stroke-linecap="round" stroke-linejoin="round"/> </g>
</svg>