<?xml version="1.0" encoding="utf-8"?><!-- Uploaded to: SVG Repo, www.svgrepo.com, Generator: SVG Repo Mixer Tools -->
<svg fill="#000000" width="800px" height="800px" viewBox="0 0 1024 1024" xmlns="http://www.w3.org/2000/svg"><path d="M422.28 220.416h455.803c16.962 0 30.72 13.758 30.72 30.72v624.128c0 16.962-13.758 30.72-30.72 30.72h-734.72c-16.968 0-30.72-13.754-30.72-30.72V251.136c0-16.966 13.752-30.72 30.72-30.72h54.272v-40.96h-54.272c-39.591 0-71.68 32.094-71.68 71.68v624.128c0 39.586 32.089 71.68 71.68 71.68h734.72c39.583 0 71.68-32.097 71.68-71.68V251.136c0-39.583-32.097-71.68-71.68-71.68H422.28v40.96z"/><path d="M370.944 802.438c16.962 0 30.72-13.758 30.72-30.72V143.361c0-16.968-13.754-30.72-30.72-30.72h-120.32c-16.966 0-30.72 13.752-30.72 30.72v628.357c0 16.962 13.758 30.72 30.72 30.72h120.32zm0 40.96h-120.32c-39.583 0-71.68-32.097-71.68-71.68V143.361c0-39.591 32.094-71.68 71.68-71.68h120.32c39.586 0 71.68 32.089 71.68 71.68v628.357c0 39.583-32.097 71.68-71.68 71.68zm422.391-458.374c5.657 0 10.24-4.583 10.24-10.24v-41.472c0-5.657-4.583-10.24-10.24-10.24H558.184a10.238 10.238 0 00-10.24 10.24v41.472c0 5.657 4.583 10.24 10.24 10.24h235.151zm0 40.96H558.184c-28.278 0-51.2-22.922-51.2-51.2v-41.472c0-28.278 22.922-51.2 51.2-51.2h235.151c28.278 0 51.2 22.922 51.2 51.2v41.472c0 28.278-22.922 51.2-51.2 51.2zm-194.889 81.92c0 14.141-11.459 25.6-25.6 25.6s-25.6-11.459-25.6-25.6c0-14.141 11.459-25.6 25.6-25.6s25.6 11.459 25.6 25.6zm102.4 0c0 14.141-11.459 25.6-25.6 25.6s-25.6-11.459-25.6-25.6c0-14.141 11.459-25.6 25.6-25.6s25.6 11.459 25.6 25.6zm103.424 0c0 14.141-11.459 25.6-25.6 25.6s-25.6-11.459-25.6-25.6c0-14.141 11.459-25.6 25.6-25.6s25.6 11.459 25.6 25.6zM598.446 612.352c0 14.141-11.459 25.6-25.6 25.6s-25.6-11.459-25.6-25.6c0-14.141 11.459-25.6 25.6-25.6s25.6 11.459 25.6 25.6zm102.4 0c0 14.141-11.459 25.6-25.6 25.6s-25.6-11.459-25.6-25.6c0-14.141 11.459-25.6 25.6-25.6s25.6 11.459 25.6 25.6zm103.424 0c0 14.141-11.459 25.6-25.6 25.6s-25.6-11.459-25.6-25.6c0-14.141 11.459-25.6 25.6-25.6s25.6 11.459 25.6 25.6zm-205.824 102.4c0 14.141-11.459 25.6-25.6 25.6s-25.6-11.459-25.6-25.6c0-14.141 11.459-25.6 25.6-25.6s25.6 11.459 25.6 25.6zm102.4 0c0 14.141-11.459 25.6-25.6 25.6s-25.6-11.459-25.6-25.6c0-14.141 11.459-25.6 25.6-25.6s25.6 11.459 25.6 25.6zm103.424 0c0 14.141-11.459 25.6-25.6 25.6s-25.6-11.459-25.6-25.6c0-14.141 11.459-25.6 25.6-25.6s25.6 11.459 25.6 25.6z"/></svg>